PathFileType	4	(x/y/z)	S05_P20_T24
DataRate	CameraRate	NumFrames	NumMarkers	Units	OrigDataRate	OrigDataStartFrame	OrigNumFrames
240	240	11	50	mm	240	1	356
Frame#	Time	Sternum			R.Acromium			L.Acromium			Top.Head			R.ASIS			L.ASIS			R.PSIS			L.PSIS			R.Great.Tro			L.Great.Tro			R.Iliac.Crest			L.Iliac.Crest			V.Sacral			R.Thigh.Upper.Post			R.Thigh.Lower.Ant			R.Thigh.Lower.Post			R.Thigh.Upper.Ant			R.Knee.Lat			R.Knee.Med			R.Shank.Upper.Post			R.Shank.Lower.Ant			R.Shank.Lower.Post			R.Shank.Upper.Ant			R.Ankle.Lat			R.Ankle.Med			R.Heel.Upper			R.Heel.Med			R.Heel.Lat			R.Toe.Lat			R.Toe.Med			R.Toe.Tip			L.Thigh.Upper.Post			L.Thigh.Lower.Ant			L.Thigh.Lower.Post			L.Thigh.Upper.Ant			L.Knee.Lat			L.Shank.Upper.Post			L.Shank.Lower.Ant			L.Shank.Lower.Post			L.Shank.Upper.Ant			L.Ankle.Lat			L.Ankle.Med			L.Heel.Upper			L.Heel.Med			L.Heel.Lat			L.Toe.Lat			L.Toe.Med			L.Toe.Tip			Cervical.Spine			Back			
		X1	Y1	Z1	X2	Y2	Z2	X3	Y3	Z3	X4	Y4	Z4	X5	Y5	Z5	X6	Y6	Z6	X7	Y7	Z7	X8	Y8	Z8	X9	Y9	Z9	X10	Y10	Z10	X11	Y11	Z11	X12	Y12	Z12	X13	Y13	Z13	X14	Y14	Z14	X15	Y15	Z15	X16	Y16	Z16	X17	Y17	Z17	X18	Y18	Z18	X19	Y19	Z19	X20	Y20	Z20	X21	Y21	Z21	X22	Y22	Z22	X23	Y23	Z23	X24	Y24	Z24	X25	Y25	Z25	X26	Y26	Z26	X27	Y27	Z27	X28	Y28	Z28	X29	Y29	Z29	X30	Y30	Z30	X31	Y31	Z31	X32	Y32	Z32	X33	Y33	Z33	X34	Y34	Z34	X35	Y35	Z35	X36	Y36	Z36	X37	Y37	Z37	X38	Y38	Z38	X39	Y39	Z39	X40	Y40	Z40	X41	Y41	Z41	X42	Y42	Z42	X43	Y43	Z43	X44	Y44	Z44	X45	Y45	Z45	X46	Y46	Z46	X47	Y47	Z47	X48	Y48	Z48	X49	Y49	Z49	X50	Y50	Z50	

1	0	NaN	NaN	NaN	-1430	1521.2	500.23	-1455.8	1541.1	174.57	-1456.6	1821.4	326.02	NaN	NaN	NaN	NaN	NaN	NaN	NaN	NaN	NaN	NaN	NaN	NaN	-1543.1	935.74	519.72	NaN	NaN	NaN	-1522.4	1093.9	495.62	-1493.2	1086.5	162.34	-1632.7	995.03	324.21	-1529.1	703.27	505.53	-1488.8	620.4	456.6	-1567.7	625.15	483.03	-1465.3	701.76	483.44	NaN	NaN	NaN	NaN	NaN	NaN	-1756	329.83	440.23	-1714.4	245.32	440.19	-1773.4	257.27	418.4	-1689.8	317.63	457.73	-1762.4	150.56	418.97	-1739.2	173.82	333.01	-1841.4	117.28	353.27	-1833.7	82.379	326.73	-1841.1	89.086	390.39	-1687.5	43.796	457.99	-1640.6	45.031	341.5	-1580.2	53.084	391.26	-1390.3	698.57	136.55	-1293.3	657.42	174.88	-1349.9	613.71	155.33	-1325.6	740.99	158.43	-1304.6	539.87	168.69	-1304.7	331.87	167.28	-1222.1	297.38	171.87	-1283.5	262.67	185.4	-1245.5	363.64	158.83	-1210.5	139.54	195	-1183.8	166.71	279.3	-1249.9	71.549	249.04	-1229.1	54.381	281.96	-1243.1	49.79	220.82	-1066.6	99.898	161.59	-1046.5	123.53	276.48	-992.7	154.58	219.64	-1497.7	1563.8	347.99	-1618.7	1290.5	343.3
2	0.0041667	NaN	NaN	NaN	-1425.3	1520.5	499.6	-1450.9	1540.1	173.83	-1452.1	1820.6	325.2	NaN	NaN	NaN	NaN	NaN	NaN	NaN	NaN	NaN	NaN	NaN	NaN	-1538.3	935.12	519.52	NaN	NaN	NaN	-1517.5	1093.2	495.42	-1487.7	1085.6	162.06	-1627.5	994.19	323.78	-1524.9	702.85	505.69	-1484.3	619.82	457.12	-1563.6	624.59	483	-1460.6	701.27	484.05	-1593	528.8	462.26	NaN	NaN	NaN	-1753.3	330.57	440.35	-1712.6	245.84	440.41	-1771.6	258.37	418.54	-1687.4	317.88	457.98	-1761.2	151.48	419.1	-1738.1	174.65	333.1	-1840.6	118.89	353.39	-1833.1	83.993	326.76	-1840.8	90.673	390.49	-1687.3	43.857	458.18	-1640.5	45.039	341.53	-1580.1	52.966	391.31	-1385.2	697.71	136.87	-1288.2	656.35	174.89	-1345.1	612.76	155.69	-1320.2	740	158.31	-1300.1	538.66	168.72	-1301.3	330.57	167.41	-1218.8	295.65	172.02	-1280.5	261.29	185.61	-1241.9	362.03	158.98	-1208.2	137.83	195.15	-1181.3	164.85	279.4	-1247.7	70.106	249.27	-1227.1	52.868	282.16	-1240.9	48.258	221.05	-1064.4	97.583	161.74	-1044.2	121.1	276.59	-990.32	152.03	219.87	-1492.8	1563	347.23	-1613.6	1289.6	342.72
3	0.0083333	NaN	NaN	NaN	-1420.5	1519.8	498.94	-1445.7	1539.1	173.05	-1447.3	1819.8	324.32	NaN	NaN	NaN	NaN	NaN	NaN	NaN	NaN	NaN	NaN	NaN	NaN	-1533.2	934.47	519.31	NaN	NaN	NaN	-1512.3	1092.4	495.19	-1482.1	1084.6	161.76	-1622	993.33	323.32	-1520.5	702.41	505.86	-1479.5	619.2	457.68	-1559.2	623.98	483.01	-1455.6	700.74	484.68	-1588.5	528.44	462.63	NaN	NaN	NaN	-1750.4	331.36	440.48	-1710.7	246.41	440.67	-1769.6	259.53	418.69	-1684.7	318.16	458.26	-1759.9	152.47	419.25	-1736.9	175.53	333.21	-1839.7	120.62	353.52	-1832.6	85.745	326.79	-1840.5	92.396	390.61	-1687.2	43.926	458.36	-1640.4	45.044	341.56	-1580	52.846	391.37	-1379.9	696.82	137.21	-1282.9	655.23	174.9	-1340	611.76	156.08	-1314.7	738.97	158.17	-1295.5	537.42	168.76	-1297.8	329.24	167.55	-1215.5	293.85	172.2	-1277.4	259.88	185.84	-1238.2	360.36	159.15	-1205.9	136.06	195.3	-1178.6	162.91	279.5	-1245.6	68.676	249.49	-1225.1	51.343	282.36	-1238.8	46.714	221.28	-1062.2	95.142	161.89	-1041.9	118.52	276.69	-987.91	149.32	220.1	-1487.7	1562.2	346.43	-1608.3	1288.6	342.11
4	0.0125	NaN	NaN	NaN	-1415.4	1519.1	498.24	-1440.4	1538	172.23	-1442.3	1819	323.41	NaN	NaN	NaN	NaN	NaN	NaN	NaN	NaN	NaN	NaN	NaN	NaN	-1527.9	933.8	519.09	NaN	NaN	NaN	-1506.9	1091.6	494.95	-1476.2	1083.6	161.45	-1616.4	992.44	322.85	-1515.9	701.96	506.05	-1474.5	618.55	458.28	-1554.4	623.33	483.05	-1450.5	700.2	485.31	-1583.7	528.05	463.04	NaN	NaN	NaN	-1747.4	332.19	440.62	-1708.7	247.03	440.95	-1767.4	260.76	418.87	-1681.9	318.45	458.56	-1758.5	153.53	419.41	-1735.6	176.46	333.35	-1838.7	122.5	353.65	-1831.9	87.641	326.82	-1840.2	94.259	390.73	-1687	44.008	458.55	-1640.3	45.047	341.6	-1579.9	52.725	391.43	-1374.5	695.9	137.56	-1277.4	654.09	174.89	-1334.8	610.75	156.48	-1308.9	737.91	158.02	-1290.7	536.15	168.81	-1294.1	327.88	167.71	-1212.1	292	172.38	-1274.3	258.43	186.06	-1234.4	358.64	159.33	-1203.5	134.24	195.45	-1176	160.91	279.61	-1243.4	67.281	249.72	-1223.1	49.828	282.56	-1236.7	45.181	221.53	-1060.1	92.59	162.05	-1039.6	115.81	276.81	-985.51	146.45	220.32	-1482.4	1561.3	345.6	-1602.8	1287.7	341.46
5	0.016667	NaN	NaN	NaN	-1410.3	1518.3	497.51	-1434.9	1536.9	171.37	-1437.2	1818.2	322.45	NaN	NaN	NaN	NaN	NaN	NaN	NaN	NaN	NaN	NaN	NaN	NaN	-1522.4	933.12	518.84	NaN	NaN	NaN	-1501.3	1090.8	494.68	-1470.1	1082.6	161.12	-1610.6	991.55	322.36	-1511.1	701.49	506.25	-1469.3	617.87	458.91	-1549.4	622.62	483.14	-1445.1	699.65	485.95	-1578.8	527.63	463.52	NaN	NaN	NaN	-1744.1	333.05	440.79	-1706.5	247.69	441.25	-1765.1	262.05	419.06	-1679	318.76	458.9	-1757.1	154.66	419.6	-1734.1	177.45	333.53	-1837.7	124.52	353.8	-1831.1	89.692	326.85	-1839.8	96.272	390.86	-1686.9	44.105	458.72	-1640.2	45.049	341.64	-1579.8	52.605	391.5	-1368.9	694.97	137.92	-1271.8	652.92	174.87	-1329.4	609.72	156.9	-1303	736.83	157.84	-1285.8	534.86	168.87	-1290.5	326.52	167.87	-1208.6	290.11	172.58	-1271.1	256.98	186.29	-1230.5	356.89	159.53	-1201.2	132.41	195.59	-1173.4	158.87	279.72	-1241.3	65.948	249.94	-1221.2	48.344	282.76	-1234.7	43.682	221.78	-1058.1	89.938	162.21	-1037.4	112.98	276.93	-983.14	143.42	220.55	-1476.9	1560.4	344.72	-1597.2	1286.7	340.79
6	0.020833	NaN	NaN	NaN	-1405	1517.6	496.75	-1429.2	1535.8	170.48	-1432	1817.4	321.45	NaN	NaN	NaN	NaN	NaN	NaN	NaN	NaN	NaN	NaN	NaN	NaN	-1516.7	932.41	518.59	NaN	NaN	NaN	-1495.6	1090	494.4	-1463.9	1081.5	160.78	-1604.6	990.65	321.85	-1506.1	701.02	506.47	-1463.8	617.15	459.59	-1544.1	621.87	483.29	-1439.6	699.08	486.59	-1573.6	527.17	464.05	NaN	NaN	NaN	-1740.5	333.96	440.97	-1704.3	248.4	441.59	-1762.7	263.41	419.28	-1675.8	319.09	459.28	-1755.6	155.87	419.82	-1732.5	178.49	333.75	-1836.5	126.7	353.95	-1830.3	91.907	326.89	-1839.4	98.441	390.99	-1686.8	44.222	458.89	-1640.1	45.053	341.68	-1579.7	52.488	391.58	-1363.2	694.03	138.29	-1266	651.74	174.83	-1324	608.69	157.33	-1297	735.74	157.64	-1280.7	533.57	168.95	-1286.8	325.16	168.04	-1205.1	288.21	172.8	-1267.9	255.53	186.52	-1226.5	355.13	159.74	-1199	130.57	195.72	-1170.8	156.8	279.85	-1239.3	64.699	250.15	-1219.4	46.914	282.95	-1232.7	42.239	222.04	-1056.1	87.203	162.36	-1035.2	110.05	277.06	-980.81	140.25	220.76	-1471.4	1559.6	343.81	-1591.4	1285.7	340.08
7	0.025	NaN	NaN	NaN	-1399.6	1516.9	495.95	-1423.5	1534.7	169.56	-1426.6	1816.6	320.42	NaN	NaN	NaN	NaN	NaN	NaN	NaN	NaN	NaN	NaN	NaN	NaN	-1511	931.7	518.31	NaN	NaN	NaN	-1489.8	1089.2	494.09	-1457.6	1080.5	160.42	-1598.5	989.75	321.34	-1501	700.55	506.7	-1458.1	616.41	460.31	-1538.4	621.07	483.49	-1433.8	698.5	487.23	-1568.2	526.67	464.65	NaN	NaN	NaN	-1736.8	334.91	441.18	-1701.8	249.16	441.96	-1760	264.84	419.52	-1672.4	319.44	459.68	-1754	157.15	420.06	-1730.7	179.59	334.01	-1835.2	129.04	354.1	-1829.3	94.3	326.92	-1839	100.78	391.13	-1686.7	44.365	459.05	-1640	45.059	341.73	-1579.6	52.374	391.66	-1357.4	693.09	138.66	-1260.2	650.56	174.78	-1318.4	607.65	157.76	-1290.9	734.63	157.41	-1275.6	532.3	169.04	-1283	323.82	168.23	-1201.7	286.3	173.03	-1264.8	254.09	186.74	-1222.6	353.36	159.97	-1196.8	128.75	195.85	-1168.3	154.71	279.98	-1237.4	63.557	250.36	-1217.8	45.558	283.13	-1230.9	40.874	222.31	-1054.2	84.401	162.51	-1033.1	107.03	277.19	-978.55	136.94	220.97	-1465.7	1558.7	342.86	-1585.5	1284.8	339.35
8	0.029167	NaN	NaN	NaN	-1394.2	1516.2	495.12	-1417.6	1533.5	168.6	-1421.2	1815.8	319.36	NaN	NaN	NaN	NaN	NaN	NaN	NaN	NaN	NaN	NaN	NaN	NaN	-1505.1	930.97	518.02	NaN	NaN	NaN	-1483.9	1088.4	493.77	-1451.2	1079.5	160.06	-1592.3	988.85	320.81	-1495.7	700.07	506.94	-1452.3	615.64	461.07	-1532.5	620.22	483.75	-1427.9	697.92	487.87	-1562.6	526.13	465.32	NaN	NaN	NaN	-1732.8	335.9	441.42	-1699.2	249.99	442.36	-1757.2	266.34	419.8	-1668.9	319.82	460.13	-1752.3	158.53	420.33	-1728.7	180.76	334.31	-1833.7	131.56	354.27	-1828.2	96.881	326.95	-1838.4	103.28	391.27	-1686.6	44.538	459.19	-1639.8	45.072	341.78	-1579.5	52.264	391.75	-1351.6	692.15	139.03	-1254.3	649.38	174.7	-1312.9	606.63	158.2	-1284.7	733.53	157.16	-1270.4	531.04	169.13	-1279.3	322.52	168.41	-1198.2	284.4	173.27	-1261.6	252.69	186.97	-1218.6	351.61	160.22	-1194.7	126.95	195.97	-1165.8	152.64	280.13	-1235.6	62.539	250.55	-1216.2	44.296	283.3	-1229.1	39.607	222.57	-1052.4	81.553	162.65	-1031	103.94	277.33	-976.36	133.52	221.18	-1459.9	1557.9	341.88	-1579.6	1283.8	338.59
9	0.033333	NaN	NaN	NaN	-1388.6	1515.5	494.27	-1411.6	1532.4	167.62	-1415.7	1815.1	318.27	NaN	NaN	NaN	NaN	NaN	NaN	NaN	NaN	NaN	NaN	NaN	NaN	-1499	930.23	517.72	-1418.4	922.05	130.7	-1477.9	1087.6	493.42	-1444.8	1078.6	159.68	-1586.1	987.97	320.28	-1490.2	699.59	507.2	-1446.2	614.85	461.89	-1526.3	619.33	484.08	-1421.9	697.34	488.52	-1556.8	525.56	466.06	NaN	NaN	NaN	-1728.5	336.95	441.69	-1696.5	250.87	442.79	-1754.2	267.91	420.1	-1665.1	320.21	460.62	-1750.5	160	420.63	-1726.5	181.99	334.66	-1832.1	134.27	354.44	-1827	99.665	326.98	-1837.7	105.98	391.4	-1686.4	44.75	459.31	-1639.7	45.096	341.83	-1579.4	52.161	391.84	-1345.7	691.23	139.39	-1248.4	648.21	174.61	-1307.3	605.62	158.64	-1278.5	732.44	156.88	-1265.2	529.81	169.23	-1275.5	321.27	168.61	-1194.8	282.54	173.53	-1258.5	251.33	187.19	-1214.6	349.89	160.47	-1192.7	125.2	196.08	-1163.4	150.6	280.28	-1233.9	61.662	250.74	-1214.8	43.146	283.47	-1227.5	38.458	222.84	-1050.7	78.677	162.79	-1029.1	100.8	277.49	-974.25	130	221.37	-1454.1	1557	340.87	-1573.5	1282.9	337.8
10	0.0375	NaN	NaN	NaN	-1383.1	1514.9	493.39	-1405.6	1531.4	166.61	-1410.1	1814.3	317.16	NaN	NaN	NaN	NaN	NaN	NaN	NaN	NaN	NaN	NaN	NaN	NaN	-1492.9	929.49	517.39	-1412.9	921.33	130.4	-1471.8	1086.8	493.05	-1438.3	1077.6	159.28	-1579.8	987.1	319.75	-1484.7	699.11	507.48	-1439.9	614.04	462.75	-1519.8	618.39	484.47	-1415.6	696.75	489.16	-1550.9	524.94	466.89	NaN	NaN	NaN	-1724	338.04	442	-1693.6	251.83	443.26	-1751	269.55	420.44	-1661.1	320.64	461.15	-1748.6	161.57	420.96	-1724.1	183.3	335.05	-1830.2	137.18	354.62	-1825.6	102.66	327.02	-1836.9	108.86	391.52	-1686.3	45.009	459.41	-1639.5	45.135	341.89	-1579.3	52.064	391.93	-1339.9	690.34	139.75	-1242.5	647.06	174.49	-1301.6	604.64	159.06	-1272.3	731.37	156.58	-1259.9	528.62	169.34	-1271.8	320.07	168.81	-1191.3	280.72	173.79	-1255.4	250.03	187.4	-1210.6	348.22	160.74	-1190.7	123.52	196.19	-1161	148.6	280.45	-1232.3	60.935	250.92	-1213.5	42.118	283.63	-1226	37.441	223.11	-1049.2	75.795	162.93	-1027.3	97.64	277.65	-972.21	126.39	221.55	-1448.3	1556.2	339.83	-1567.5	1282	337
11	0.041667	NaN	NaN	NaN	-1377.5	1514.3	492.49	-1399.6	1530.3	165.57	-1404.5	1813.6	316.02	NaN	NaN	NaN	NaN	NaN	NaN	NaN	NaN	NaN	NaN	NaN	NaN	-1486.7	928.74	517.05	-1407.1	920.61	130.09	-1465.7	1086.1	492.66	-1431.8	1076.8	158.88	-1573.4	986.25	319.22	-1478.9	698.64	507.78	-1433.4	613.22	463.65	-1513	617.41	484.92	-1409.2	696.18	489.81	-1544.7	524.29	467.8	NaN	NaN	NaN	-1719.3	339.21	442.35	-1690.4	252.85	443.76	-1747.5	271.26	420.81	-1656.8	321.09	461.72	-1746.5	163.26	421.32	-1721.5	184.67	335.5	-1828.2	140.31	354.81	-1824	105.89	327.05	-1835.8	111.94	391.63	-1686.1	45.325	459.48	-1639.3	45.197	341.95	-1579.2	51.975	392.03	-1334	689.48	140.08	-1236.6	645.94	174.35	-1296	603.69	159.48	-1266.1	730.32	156.25	-1254.6	527.48	169.44	-1268	318.96	169	-1187.9	278.97	174.06	-1252.3	248.81	187.6	-1206.7	346.6	161.01	-1188.8	121.93	196.29	-1158.7	146.66	280.62	-1230.7	60.363	251.09	-1212.3	41.223	283.77	-1224.6	36.568	223.37	-1047.7	72.93	163.06	-1025.5	94.478	277.82	-970.23	122.73	221.72	-1442.4	1555.4	338.76	-1561.4	1281.1	336.17
